<svg xmlns="http://www.w3.org/2000/svg" version="1.1" xmlns:xlink="http://www.w3.org/1999/xlink" xmlns:svgjs="http://svgjs.dev/svgjs" width="1000" height="1000" viewBox="0 0 1000 1000"><rect width="1000" height="1000" fill="#ffffff"></rect><g transform="matrix(0.7,0,0,0.7,150.00005140625,106.25)"><svg viewBox="0 0 320 360" data-background-color="#ffffff" preserveAspectRatio="xMidYMid meet" height="1125" width="1000" xmlns="http://www.w3.org/2000/svg" xmlns:xlink="http://www.w3.org/1999/xlink"><g id="tight-bounds" transform="matrix(1,0,0,1,0.000023499999997511622,0)"><svg viewBox="0 0 320 360" height="360" width="320"><g><svg></svg></g><g><svg viewBox="0 0 320 360" height="360" width="320"><g><path transform="translate(-74.99272,-51.79039) scale(4.65793,4.65793)" d="M20.6 59.9l0.8 1-0.4-1.3c-0.1-0.6-0.8 0.1-0.4 0.3M21.5 59.3c0.3 0.5 0.6 1 0.6 1.5 0 0.7 0.6 1 1.1 1.2-0.7-0.8-1.1-3-1.7-2.7M59.9 16.9c1.7 0 3.3-0.2 5.1 0.2 4.4 1.1 8.1 3.3 10.6 6.4l7 11.2c0.3 2.8 0.9 5.9 0.8 9.3 0.7 0 0.6-1 1.4-1.2-0.8 2-1.2 4.5-1.4 7.4-0.5-1.6 0-4 0.1-5.3-0.7 1.1-1.1 0.3-1.1-0.2 0.1-0.8-0.3-0.7-0.6-1-1.1-1-1.8-2.1-2.6-3.8 0.5-1.3 0.6-3.2-1-4.2-0.5-0.3-1.1-0.8-1.4-1.6-0.4-1.1-1.1-2.4-0.9-4.1 0.1-0.5-1.5 1.1-2.4 0.4-3.9-2.7-7.8-5.8-12.5-8.4-2.5 0-4.3-0.9-5.2-2-0.8-1-0.2-2.3 1-2.4 0.7 0 1.5-0.2 2.1 0.2 0.1-0.4 0.5-0.9 1-0.9M50 14.6l0.2 0.1c1 0.2 1.5 1.6 2.6 1.1 0 0.7 0.1 1.4-0.1 1.9-0.3 0.8-1.2 0.8-1.9 0.8-6.7-0.4-10.6 2.4-14.7 4.8-1.1 0.7-2.3 1.2-3.2 2.1-4.3 4-9 7.7-10.1 15.1l-0.9 8.2c-0.1 0.9-1.1 1.8-0.9 2.9l0.7 4.9c-0.7-0.7-1.1 0.2-0.9 0.6 0.1 0.3 0.5 1.3 1.1 0.4 0.8 1.5 1.6 4.4 2.7 5.7 3.4 4 7.8 7.6 11.4 11.2 0.9-0.2 1.6-0.2 1.8-0.8 0.3 0.6-0.3 1.2-0.8 1.3 1.6 1 3.4 1.9 5.8 2.1 3.1 0.2 6 0.7 8.7 1.4 1.4-0.4 2.8-0.6 4.3-0.7 0.5 0 0.8-0.8 1.4-1l0.1-1c0.6 0.9 0.5-0.3 0.1-0.9 0.7 0.6 0.9 1.1 1.2 1.5 0-0.3 0.8-1.4 0.8-0.1l0.2-1.3c0.3-0.2 0.4 1.1 0.7 0.2 0.3-0.9 0.9-0.2 1.5-0.5-0.2 0.4-0.1 1.2 0.6 0.7l0.8-0.7c0.5 1.2 1.3 0.7 1.7 0.5 4.4-2.8 8.8-6.1 13-9.4l-0.1 1.3 0.5-1.6c0.5 0.5 0.9 0.1 1.1-0.2 0.6-1 1.4-2 2.7-2.9-1.6 4.3-3.5 7.7-5.9 10.5l-1 1.2c0 0.7-0.2 1.6-1 1.7-0.4 0.1-1.2-0.2-1.8 0.4-0.3 0.4 0.7 1.2-0.1 0.6-0.7-0.5-1.4 0-2.2 0.2-0.6 0.2 0.4 0.8 0.6 1.2 0.2 0.4 0.4 0.8 0.3 1.3l-1.1-1.2c-1.3 0.7-2.1 2-3.2 3-0.5 0.4-0.3 1.1-0.3 1.7-0.7 0-1.5-0.2-1.9 0.2-0.3 0.4-0.2 1-0.2 1.6-1-0.1-1.1-1.6-2-1.3-0.9 0.2-1.9 0.3-2.7 0.8 0.6 1.2-1 0.5-0.8 0.7-1.5-0.9-2.8-1.6-4.4-1-3.4-1.1-7.6-0.6-10.7-0.2 0-0.5 0.1-1-0.1-1.1-0.2 0.5-0.8 0.3-0.7 0.3-1.9-1.3-3.8-2.1-5.8-3.2-1.8 0.2-3.5-0.7-4-1.2-1.4-1.3-3-0.6-4.3-0.9-2.8-0.7-3.8-3.6-4.1-5.6-0.2-1-1-1.4-1.3-1.3-1.3-4.2-3.3-8-4.9-11.9-0.4-1-0.3-2-0.3-3.1 0.5 0.2 1 0.1 0.9-0.6-0.5-3.3-1.7-5.8-3-8.2 0.7-3.4 0.8-7.4 2.4-10.4 1.4-2.7 4-4.1 5.8-6.4 0.6-0.8 0.6-1.9 1.2-2.6 2-2 4-4.1 6.2-5.9 1-0.8 2.2 0 3.7-0.3 0.5-1.8 2.5-3.4 4.4-2.9 0.8 0.2 2.4-1.9 2.9-2.1 0.8-0.3 0.4 0.8 0.4 1.5 1.9-1.5 4.5-2.3 6.9-3.2" fill="#77d4fc" fill-rule="nonzero" stroke="none" stroke-width="1" stroke-linecap="butt" stroke-linejoin="miter" stroke-miterlimit="10" stroke-dasharray="" stroke-dashoffset="0" font-family="none" font-weight="none" font-size="none" text-anchor="none" style="mix-blend-mode: normal" data-fill-palette-color="tertiary"></path></g><g transform="matrix(1,0,0,1,64,108.94354829752066)"><svg viewBox="0 0 192 142.11290340495867" height="142.11290340495867" width="192"><g><svg viewBox="0 0 192 142.11290340495867" height="142.11290340495867" width="192"><g><svg viewBox="0 0 192 142.11290340495867" height="142.11290340495867" width="192"><g transform="matrix(1,0,0,1,0,85.89566609681228)"><svg viewBox="0 0 192 56.217237308146395" height="56.217237308146395" width="192"><g id="textblocktransform"><svg viewBox="0 0 192 56.217237308146395" height="56.217237308146395" width="192" id="textblock"><g><svg viewBox="0 0 192 56.217237308146395" height="56.217237308146395" width="192"><g transform="matrix(1,0,0,1,0,0)"><svg width="192" viewBox="0.7 -37 127.03999999999999 37.2" height="56.217237308146395" data-palette-color="#77d4fc"><path d="M22.15-12.35Q22.15-9.55 21.08-7.28 20-5 18.18-3.35 16.35-1.7 13.88-0.8 11.4 0.1 8.55 0.1L8.55 0.1Q6.55 0.1 4.55-0.98 2.55-2.05 0.7-4.4L0.7-4.4 4.4-11.65Q4.75-11 5.45-10.33 6.15-9.65 7.03-9.15 7.9-8.65 8.78-8.33 9.65-8 10.35-8L10.35-8Q10.95-8 11.6-8.2 12.25-8.4 12.8-8.8 13.35-9.2 13.68-9.73 14-10.25 14-10.95L14-10.95Q14-12.15 13.23-13.18 12.45-14.2 11.3-15.13 10.15-16.05 8.8-17 7.45-17.95 6.33-19 5.2-20.05 4.4-21.35 3.6-22.65 3.6-24.25L3.6-24.25Q3.6-26.85 5.15-29.1 6.7-31.35 9.03-32.98 11.35-34.6 14.1-35.55 16.85-36.5 19.3-36.5L19.3-36.5Q20.65-36.5 21.85-36.18 23.05-35.85 23.93-35.13 24.8-34.4 25.33-33.3 25.85-32.2 25.85-30.55L25.85-30.55Q25.85-29.85 25.73-29.15 25.6-28.45 25.5-27.65L25.5-27.65 18.25-25.55Q18.35-25.95 18.43-26.35 18.5-26.75 18.5-27.15L18.5-27.15Q18.5-28.65 17.98-29.33 17.45-30 16.6-30L16.6-30Q16.2-30 15.63-29.7 15.05-29.4 14.48-28.93 13.9-28.45 13.5-27.8 13.1-27.15 13.1-26.4L13.1-26.4Q13.1-25.2 13.78-24.4 14.45-23.6 15.45-22.9 16.45-22.2 17.63-21.48 18.8-20.75 19.8-19.6 20.8-18.45 21.48-16.73 22.15-15 22.15-12.35L22.15-12.35ZM33.95-1.65L23.55 0.2 27.35-35.3Q29.7-35.4 31.77-35.77 33.85-36.15 35.9-36.3L35.9-36.3Q35.9-36.25 35.75-35.27 35.6-34.3 35.35-32.73 35.1-31.15 34.8-29.18 34.5-27.2 33.92-23.75 33.35-20.3 32.4-14.2L32.4-14.2 33.15-14.2Q34.45-18.8 35.3-21.73 36.15-24.65 36.67-26.48 37.2-28.3 37.67-30 38.15-31.7 38.57-33.15 39-34.6 39.25-35.6L39.25-35.6 39.7-35.6Q40.6-35.6 41.52-35.7 42.45-35.8 43.27-35.93 44.1-36.05 45-36.25L45-36.25Q44.9-35.8 44.77-34.4 44.65-33 44.45-31.03 44.25-29.05 44.05-26.68 43.85-24.3 43.65-22.03 43.45-19.75 43.27-17.7 43.1-15.65 42.95-14.2L42.95-14.2 43.85-14.2 48.6-35.7Q50.3-35.95 51.95-36.15L51.95-36.15Q53.4-36.35 54.95-36.55 56.5-36.75 57.7-37L57.7-37Q56.95-34.9 56.2-32.33 55.45-29.75 54.65-26.9 53.85-24.05 53.12-21.15 52.4-18.25 51.7-15.55L51.7-15.55Q50.1-9.15 48.6-2.4L48.6-2.4 37.3-0.5 39.5-19.8 38.9-19.8 33.95-1.65ZM60.05-1Q59.59-1 58.27-0.88 56.95-0.75 55.55-0.58 54.15-0.4 53.02-0.25 51.9-0.1 51.8-0.05L51.8-0.05Q52.3-2.2 52.82-4.83 53.34-7.45 53.9-10.33 54.45-13.2 54.95-16.15 55.45-19.1 55.9-21.85L55.9-21.85Q56.95-28.25 58-35L58-35 65.8-36.25Q64.65-29.55 63.55-23.1L63.55-23.1Q63.09-20.35 62.62-17.4 62.15-14.45 61.67-11.55 61.2-8.65 60.8-5.93 60.4-3.2 60.05-1L60.05-1ZM75.14-1.35L66.14 0.05Q67.29-5.45 68.34-10.8L68.34-10.8Q68.79-13.05 69.24-15.5 69.69-17.95 70.12-20.33 70.54-22.7 70.87-24.93 71.19-27.15 71.44-29L71.44-29Q70.29-29.15 69.12-29.1 67.94-29.05 66.79-29.4L66.79-29.4Q66.84-30.2 66.84-31.25 66.84-32.3 66.89-33.35L66.89-33.35Q66.94-34.5 66.99-35.8L66.99-35.8Q68.29-35.7 69.59-35.65 70.89-35.6 72.19-35.6L72.19-35.6Q74.74-35.6 77.12-35.73 79.49-35.85 81.52-36.02 83.54-36.2 85.49-36.45L85.49-36.45 84.94-33.75Q84.69-32.6 84.47-31.4 84.24-30.2 84.04-29.35L84.04-29.35Q82.94-29.05 81.82-28.93 80.69-28.8 79.59-28.6L79.59-28.6Q79.24-26.9 78.84-24.83 78.44-22.75 78.07-20.53 77.69-18.3 77.34-16 76.99-13.7 76.64-11.6L76.64-11.6Q75.84-6.65 75.14-1.35L75.14-1.35ZM101.09-10.75Q99.89-8 98.42-5.98 96.94-3.95 95.32-2.58 93.69-1.2 92.04-0.55 90.39 0.1 88.84 0.1L88.84 0.1Q87.29 0.1 86.02-0.6 84.74-1.3 83.79-2.7 82.84-4.1 82.27-6.15 81.69-8.2 81.69-10.95L81.69-10.95Q81.69-15.65 82.99-20.23 84.29-24.8 86.64-28.45 88.99-32.1 92.22-34.33 95.44-36.55 99.34-36.55L99.34-36.55Q100.54-36.55 101.64-36.05 102.74-35.55 103.54-34.65 104.34-33.75 104.82-32.45 105.29-31.15 105.29-29.55L105.29-29.55Q105.29-29.25 105.29-28.93 105.29-28.6 105.24-28.25L105.24-28.25 98.69-26.5Q98.09-27.75 97.29-27.75L97.29-27.75Q96.49-27.75 95.62-26.83 94.74-25.9 93.89-24.43 93.04-22.95 92.24-21.13 91.44-19.3 90.84-17.45 90.24-15.6 89.87-13.93 89.49-12.25 89.49-11.2L89.49-11.2Q89.49-9.6 89.92-8.95 90.34-8.3 91.04-8.3L91.04-8.3Q91.59-8.3 92.29-8.72 92.99-9.15 93.59-9.83 94.19-10.5 94.69-11.35 95.19-12.2 95.39-13.05L95.39-13.05 101.09-10.75ZM108.54-1.5L100.84 0.1Q102.24-6.9 103.54-13.55L103.54-13.55Q104.04-16.4 104.59-19.48 105.14-22.55 105.61-25.55 106.09-28.55 106.51-31.38 106.94-34.2 107.19-36.5L107.19-36.5Q108.34-36.45 109.31-36.38 110.29-36.3 111.24-36.25 112.19-36.2 113.16-36.18 114.14-36.15 115.29-36.15L115.29-36.15Q114.44-32.6 113.61-29.05 112.79-25.5 112.09-21.9L112.09-21.9 117.04-22.45Q117.74-26 118.29-29.33 118.84-32.65 119.74-36.2L119.74-36.2Q120.89-36.4 122.29-36.52 123.69-36.65 124.89-36.75 126.09-36.85 126.91-36.93 127.74-37 127.74-37L127.74-37Q127.04-34.75 126.41-32.08 125.79-29.4 125.19-26.53 124.59-23.65 124.04-20.7 123.49-17.75 123.04-15.1L123.04-15.1Q121.94-8.75 120.99-2.1L120.99-2.1 113.19-1.2Q113.84-4.2 114.34-7.05L114.34-7.05Q114.84-9.45 115.36-12.05 115.89-14.65 116.19-16.5L116.19-16.5 111.34-16.05Q110.99-14.15 110.51-11.65 110.04-9.15 109.64-6.9L109.64-6.9Q109.09-4.2 108.54-1.5L108.54-1.5Z" opacity="1" transform="matrix(1,0,0,1,0,0)" fill="#77d4fc" class="wordmark-text-0" data-fill-palette-color="primary" id="text-0"></path></svg></g></svg></g></svg></g></svg></g><g transform="matrix(1,0,0,1,55.94025299060878,0)"><svg viewBox="0 0 80.11949401878243 77.69222195985833" height="77.69222195985833" width="80.11949401878243"><g><svg xmlns="http://www.w3.org/2000/svg" xmlns:xlink="http://www.w3.org/1999/xlink" version="1.1" x="0" y="0" viewBox="17 17.999756925822837 66 64.00048717417717" style="enable-background:new 0 0 100 100;" xml:space="preserve" height="77.69222195985833" width="80.11949401878243" class="icon-icon-0" data-fill-palette-color="accent" id="icon-0"><path d="M76.714 24h-16.512l3.572-4.366c0.35-0.428 0.286-1.058-0.141-1.408-0.427-0.35-1.057-0.286-1.407 0.141l-4.5 5.5c-0.033 0.041-0.045 0.089-0.071 0.133H42.345c-0.026-0.044-0.037-0.093-0.071-0.133l-4.5-5.5c-0.352-0.428-0.98-0.491-1.407-0.141-0.428 0.35-0.491 0.979-0.141 1.408l3.572 4.366H23.285C19.819 24 17 26.82 17 30.286v45.429c0 3.466 2.819 6.286 6.285 6.285h53.429C80.18 82 83 79.18 83 75.715V30.286C83 26.82 80.18 24 76.714 24zM64.957 53.199l-7.379 7.379c-0.756 0.755-1.76 1.171-2.828 1.172s-2.073-0.416-2.828-1.172L45.25 53.907l-4.552 4.551c-1.56 1.561-4.098 1.559-5.655 0-1.56-1.56-1.561-4.097-0.001-5.657l7.38-7.379c0.755-0.755 1.759-1.172 2.828-1.172 1.068 0 2.072 0.416 2.828 1.172L54.75 52.094l4.551-4.551c0.755-0.755 1.759-1.171 2.828-1.172 1.068 0 2.072 0.416 2.827 1.172C66.516 49.102 66.517 51.64 64.957 53.199z" fill="#4b91f1" data-fill-palette-color="accent"></path></svg></g></svg></g><g></g></svg></g></svg></g></svg></g></svg></g><defs></defs></svg><rect width="320" height="360" fill="none" stroke="none" visibility="hidden"></rect></g></svg></g></svg>